Coordinates
version=1
nRows=22
nColumns=24
inDegrees=yes

Units are S.I. units (second, meters, Newtons, ...)
Angles are in degrees.

endheader
time	pelvis_tilt	pelvis_list	pelvis_rotation	pelvis_tx	pelvis_ty	pelvis_tz	hip_flexion_r	hip_adduction_r	hip_rotation_r	knee_angle_r	ankle_angle_r	subtalar_angle_r	mtp_angle_r	hip_flexion_l	hip_adduction_l	hip_rotation_l	knee_angle_l	ankle_angle_l	subtalar_angle_l	mtp_angle_l	lumbar_extension	lumbar_bending	lumbar_rotation
      0.57900000	      1.18114907	      1.61804201	     -3.84382830	     -0.77355625	      0.98508418	      0.30669082	     20.13646751	     -0.66058332	     -1.51083886	      3.08956727	      0.18841257	     -1.62957311	      2.77059888	    -21.54944243	      7.22682889	      7.62457104	     -0.60944166	     12.22085826	    -14.26689887	     -8.71556511	    -11.77187813	      7.64332784	    -10.14836364
      0.58316667	      1.12970017	      1.43337215	     -3.84600237	     -0.76784261	      0.98434789	      0.30708695	     20.15946168	     -0.41088299	     -1.21945743	      2.88471518	      0.00065997	     -1.80669344	      2.79986056	    -21.62330329	      7.04480400	      7.48922008	     -1.10725727	     12.44641620	    -14.02543685	     -8.68331107	    -11.70665436	      7.90930184	    -10.12926162
      0.58733333	      1.09498892	      1.27290607	     -3.84978039	     -0.76217093	      0.98368559	      0.30750352	     20.18682957	     -0.18675647	     -0.88113358	      2.58184861	     -0.26976771	     -2.12634336	      2.84222975	    -21.64503772	      6.89152695	      7.21637503	     -1.73758993	     12.73344999	    -13.60870494	     -8.61391314	    -11.67389380	      8.12172517	    -10.09667172
      0.59150000	      1.04657872	      1.07109463	     -3.85573915	     -0.75643156	      0.98304644	      0.30793722	     20.23350912	      0.08102034	     -0.55485620	      2.19528393	     -0.55615758	     -2.43537109	      2.88732711	    -21.66292933	      6.69452395	      6.98184672	     -2.35786964	     12.98617289	    -13.24290479	     -8.52430656	    -11.63005383	      8.38231840	    -10.05230644
      0.59566667	      1.00270732	      0.86407788	     -3.86208614	     -0.75067057	      0.98245266	      0.30838354	     20.28694221	      0.35438944	     -0.21630650	      1.73122337	     -0.88339609	     -2.80952879	      2.93498349	    -21.65937811	      6.49380592	      6.71457773	     -3.03317923	     13.23259481	    -12.87275567	     -8.40939306	    -11.57518934	      8.66654737	    -10.00245985
      0.59983333	      0.95104214	      0.64359928	     -3.86752807	     -0.74487112	      0.98189546	      0.30884482	     20.35409105	      0.64250928	      0.12271645	      1.20609801	     -1.24312400	     -3.21868208	      2.98854873	    -21.62955071	      6.27795237	      6.43940780	     -3.74830661	     13.45788986	    -12.49829598	     -8.25776108	    -11.51779195	      8.95954583	     -9.94824269
      0.60400000	      0.90734298	      0.40424170	     -3.88084891	     -0.73903382	      0.98138021	      0.30933679	     20.42535155	      0.95430490	      0.45310583	      0.61054254	     -1.64187181	     -3.66491140	      3.03954607	    -21.60057298	      6.04512903	      6.15118221	     -4.48438627	     13.64689474	    -12.13679643	     -8.08528755	    -11.46871455	      9.27212675	     -9.88174418
      0.60816667	      0.84114752	      0.16570465	     -3.89182812	     -0.73316878	      0.98088132	      0.30984439	     20.53463125	      1.26753692	      0.77114914	     -0.04742706	     -2.06401066	     -4.13743141	      3.08959680	    -21.52829484	      5.80984738	      5.86232435	     -5.25491730	     13.79950379	    -11.78784097	     -7.88515339	    -11.39903586	      9.57948064	     -9.81947761
      0.61233333	      0.79913802	     -0.08694968	     -3.90245168	     -0.72726634	      0.98045557	      0.31036432	     20.61896703	      1.59545508	      1.07420585	     -0.73978765	     -2.49738870	     -4.63790077	      3.14308426	    -21.45584243	      5.56029567	      5.53638960	     -6.07862408	     13.94156139	    -11.41590496	     -7.63615726	    -11.34672034	      9.91102012	     -9.74954609
      0.61650000	      0.73546319	     -0.34384513	     -3.91600907	     -0.72133679	      0.98003115	      0.31090727	     20.74510602	      1.93183169	      1.35203977	     -1.49509965	     -2.93458074	     -5.14212257	      3.19287194	    -21.34694062	      5.30644756	      5.23616103	     -6.93830456	     14.02848187	    -11.09251069	     -7.35771269	    -11.27616567	     10.23818265	     -9.67897211
      0.62066667	      0.67353971	     -0.60040485	     -3.93024749	     -0.71537029	      0.97964866	      0.31146188	     20.87688164	      2.26921479	      1.60932184	     -2.28731073	     -3.36312459	     -5.65118042	      3.23845807	    -21.22188270	      5.05045788	      4.91293427	     -7.82639416	     14.07179967	    -10.77598762	     -7.04491164	    -11.19641800	     10.57307484	     -9.60227667
      0.62483333	      0.63315478	     -0.87283953	     -3.93601455	     -0.70938369	      0.97932657	      0.31202415	     20.98698175	      2.62069199	      1.83922152	     -3.10271344	     -3.78141038	     -6.19657309	      3.29168382	    -21.09257666	      4.77344678	      4.56961454	     -8.77906459	     14.10766227	    -10.40781449	     -6.60314259	    -11.14722217	     10.92220833	     -9.52660505
      0.62900000	      0.64842834	     -1.18676396	     -3.94143800	     -0.70333640	      0.97912501	      0.31260163	     21.02018542	      3.01054909	      2.03185406	     -3.90861243	     -4.14953347	     -6.68287620	      3.40275704	    -21.00495775	      4.44956093	      4.13539077	     -9.76303738	     14.11954541	     -9.97800511	     -5.52422498	    -11.17087198	     11.32774742	     -9.46159142
      0.63316667	      0.52585823	     -1.40875841	     -3.96139695	     -0.69730955	      0.97876728	      0.31317936	     21.27392102	      3.31952887	      2.19697365	     -4.86085795	     -4.47275588	     -7.12598875	      3.41907299	    -20.78148948	      4.23605435	      3.98134501	    -10.70136062	     13.88044241	     -9.99787617	     -5.23606436	    -11.01519241	     11.60635426	     -9.37072514
      0.63733333	      0.46659104	     -1.68019858	     -3.96880122	     -0.69124070	      0.97853079	      0.31378031	     21.42026201	      3.67419705	      2.36167671	     -5.75178202	     -4.77962565	     -7.63654367	      3.43523817	    -20.56986409	      3.95211242	      3.62904332	    -11.76205562	     13.74341326	     -9.71378795	     -4.78680468	    -10.93147154	     11.95116691	     -9.30264975
      0.64150000	      0.48890185	     -1.96527977	     -3.97555511	     -0.68515045	      0.97844210	      0.31437384	     21.48723694	      4.03662188	      2.47742633	     -6.68037877	     -4.97672873	     -8.09063353	      3.57189456	    -20.44678443	      3.65704375	      3.28781334	    -12.79414205	     13.39936160	     -9.54374521	      0.95801074	    -10.95397529	     12.32357900	     -9.19212947
      0.64566667	      0.42926123	     -2.21976937	     -3.96236515	     -0.67904917	      0.97829928	      0.31492829	     21.64515700	      4.36097865	      2.54806111	     -7.61680041	     -5.12773062	     -8.44599545	      3.56283751	    -20.19679295	      3.38817690	      3.04069836	    -13.90396963	     13.05867603	     -9.46434915	      1.01746577	    -10.85316366	     12.65885815	     -9.15298151
      0.64983333	      0.39709576	     -2.48089299	     -3.95201577	     -0.67295235	      0.97822128	      0.31551791	     21.77107157	      4.69628733	      2.62515804	     -8.56103053	     -5.20699631	     -8.83882964	      3.54362852	    -19.94002221	      3.10246508	      2.72259067	    -15.07608213	     12.72797312	     -9.25739935	      1.16841928	    -10.79835721	     12.99297462	     -9.08973271
      0.65400000	      0.38437211	     -2.75235166	     -3.91899641	     -0.66684634	      0.97821118	      0.31607779	     21.87710746	      5.03168269	      2.63583347	     -9.51925225	     -5.23736445	     -9.21092801	      3.49702618	    -19.67986231	      2.79350037	      2.41759542	    -16.28580307	     12.37297326	     -8.98463955	      1.53733322	    -10.76997447	     13.33964182	     -9.02921158
      0.65816667	      0.35795730	     -3.00220804	     -3.89840678	     -0.66074720	      0.97822247	      0.31666006	     21.99270657	      5.35119411	      2.67372663	    -10.47414076	     -5.15695308	     -9.53152767	      3.43537029	    -19.37051800	      2.50572480	      2.10953423	    -17.54070658	     11.87716831	     -8.81688347	      2.00840223	    -10.71907022	     13.65979838	     -8.96597436
      0.66233333	      0.41395172	     -3.29053103	     -3.86602320	     -0.65463528	      0.97839414	      0.31725305	     21.97248268	      5.70708916	      2.74307759	    -11.34971083	     -4.98358154	     -9.90249817	      2.69208403	    -19.12947168	      2.16623862	      1.75815626	    -18.81261053	     11.21056005	     -8.70323496	      7.12172190	    -10.76957636	     14.02392159	     -8.91689724
      0.66650000	      0.40321687	     -3.53918622	     -3.81924866	     -0.64852563	      0.97852172	      0.31778280	     22.04273934	      6.00981918	      2.72191836	    -12.26471202	     -4.73309632	    -10.07354334	      2.67700212	    -18.77878123	      1.86402461	      1.48681089	    -20.14281726	     10.52226947	     -8.62421565	      7.19639913	    -10.72167898	     14.34799986	     -8.85879678
